<svg width="22" height="21" viewBox="0 0 22 21" fill="none" xmlns="http://www.w3.org/2000/svg">
<path d="M14.4992 5.51142C13.8236 5.51101 13.151 5.60164 12.4996 5.78086C12.2425 5.36131 11.9301 4.97824 11.5709 4.64192L12.5095 3.30264C12.569 3.21768 12.6112 3.12183 12.6336 3.02058C12.6561 2.91932 12.6584 2.81463 12.6404 2.71249C12.6223 2.61035 12.5844 2.51276 12.5287 2.42529C12.4729 2.33781 12.4005 2.26217 12.3156 2.20268C12.2306 2.14319 12.1348 2.10102 12.0335 2.07857C11.9323 2.05612 11.8276 2.05383 11.7254 2.07184C11.6233 2.08985 11.5257 2.1278 11.4382 2.18353C11.3508 2.23925 11.2751 2.31166 11.2156 2.39662L10.277 3.73492C9.50521 3.34521 8.65259 3.14237 7.78796 3.14275C7.73072 3.14275 7.67347 3.14275 7.61623 3.14275L7.331 1.53501C7.31603 1.43025 7.28016 1.32957 7.22551 1.23895C7.17086 1.14834 7.09855 1.06963 7.01288 1.00751C6.92721 0.945385 6.82992 0.901119 6.72681 0.87734C6.62369 0.85356 6.51685 0.850752 6.41262 0.869082C6.3084 0.887412 6.20892 0.926506 6.12011 0.984041C6.03129 1.04158 5.95495 1.11638 5.89562 1.204C5.83628 1.29163 5.79517 1.39028 5.77471 1.49411C5.75426 1.59794 5.75489 1.70482 5.77656 1.8084L6.0608 3.42107C5.18514 3.7107 4.3957 4.21449 3.76418 4.88669L2.41995 3.94613C2.33506 3.88517 2.23892 3.84168 2.13709 3.81817C2.03526 3.79466 1.92978 3.79159 1.82676 3.80916C1.72374 3.82672 1.62523 3.86456 1.53695 3.92048C1.44866 3.9764 1.37236 4.0493 1.31246 4.13493C1.25256 4.22057 1.21026 4.31725 1.188 4.41936C1.16575 4.52146 1.16399 4.62698 1.18282 4.72977C1.20165 4.83257 1.24071 4.9306 1.29772 5.01819C1.35472 5.10578 1.42855 5.18118 1.51492 5.24001L2.85322 6.17959C2.46214 6.95126 2.25922 7.80454 2.26105 8.66965C2.26105 8.72591 2.26105 8.78315 2.26105 8.83941L0.653318 9.12365C0.458718 9.15774 0.28397 9.26355 0.163568 9.42018C0.0431668 9.57682 -0.014138 9.7729 0.00296615 9.96972C0.0200703 10.1665 0.11034 10.3498 0.255957 10.4833C0.401573 10.6168 0.591953 10.6909 0.789517 10.6909C0.835498 10.6909 0.881391 10.6869 0.926702 10.6791L2.5374 10.3948C2.67892 10.8257 2.87318 11.2374 3.11575 11.6206C2.36053 12.3221 1.83404 13.2348 1.60483 14.2397C1.37563 15.2446 1.45434 16.2953 1.83072 17.2549C2.20709 18.2145 2.86369 19.0385 3.715 19.6196C4.56631 20.2007 5.57288 20.512 6.60362 20.513H14.4992C16.4885 20.513 18.3964 19.7228 19.8031 18.3161C21.2097 16.9094 22 15.0016 22 13.0122C22 11.0229 21.2097 9.11503 19.8031 7.70836C18.3964 6.30168 16.4885 5.51142 14.4992 5.51142ZM3.84017 8.66965C3.84064 7.83357 4.10655 7.01922 4.59957 6.34396C5.09259 5.66871 5.78727 5.16741 6.58349 4.91232C7.37971 4.65723 8.23636 4.66152 9.02999 4.92457C9.82362 5.18761 10.5132 5.69583 10.9995 6.37599C9.38888 7.22358 8.13995 8.62608 7.48398 10.3238C6.44605 10.1446 5.37814 10.2883 4.42444 10.7353C4.04262 10.114 3.84038 9.39897 3.84017 8.66965ZM14.4992 18.9339H6.60362C6.11767 18.933 5.63707 18.8324 5.19154 18.6384C4.74601 18.4444 4.34501 18.161 4.01334 17.8059C3.68168 17.4507 3.4264 17.0313 3.26328 16.5735C3.10017 16.1158 3.03269 15.6294 3.06502 15.1445C3.09735 14.6597 3.2288 14.1866 3.45124 13.7545C3.67369 13.3225 3.98239 12.9406 4.35827 12.6327C4.73416 12.3247 5.16922 12.097 5.63657 11.9639C6.10392 11.8307 6.59362 11.7949 7.07538 11.8585C7.03887 12.0924 7.01321 12.3312 6.99939 12.572C6.99343 12.6757 7.00795 12.7796 7.04212 12.8777C7.07629 12.9757 7.12944 13.0661 7.19854 13.1436C7.26764 13.2212 7.35134 13.2843 7.44485 13.3295C7.53836 13.3747 7.63986 13.401 7.74355 13.407C7.84723 13.413 7.95108 13.3984 8.04915 13.3643C8.14723 13.3301 8.23761 13.2769 8.31515 13.2078C8.39268 13.1387 8.45584 13.0551 8.50103 12.9615C8.54622 12.868 8.57254 12.7665 8.5785 12.6628C8.60066 12.269 8.66282 11.8785 8.76405 11.4973C8.76405 11.4815 8.77293 11.4657 8.77589 11.4499C9.0661 10.3834 9.64867 9.41936 10.4578 8.66652C11.267 7.91367 12.2706 7.40205 13.3551 7.18943C14.4397 6.9768 15.5622 7.07163 16.5957 7.46322C17.6292 7.85481 18.5327 8.52755 19.2041 9.40549C19.8755 10.2834 20.288 11.3316 20.3952 12.4316C20.5024 13.5316 20.2998 14.6397 19.8105 15.6307C19.3212 16.6217 18.5645 17.4562 17.626 18.0399C16.6875 18.6235 15.6044 18.9332 14.4992 18.9339Z" fill="#DFDFDF"/>
</svg>
