<svg width="15" height="19" viewBox="0 0 15 19" fill="none" xmlns="http://www.w3.org/2000/svg">
<path d="M10.768 3.62262C9.77537 2.47626 8.6582 1.444 7.43713 0.544912C7.32904 0.469192 7.20026 0.428574 7.06828 0.428574C6.93631 0.428574 6.80753 0.469192 6.69944 0.544912C5.48061 1.44437 4.36562 2.47662 3.37503 3.62262C1.16599 6.15952 0 8.83383 0 11.3571C0 13.2326 0.745031 15.0312 2.07119 16.3574C3.39736 17.6835 5.19602 18.4286 7.0715 18.4286C8.94698 18.4286 10.7456 17.6835 12.0718 16.3574C13.398 15.0312 14.143 13.2326 14.143 11.3571C14.143 8.83383 12.977 6.15952 10.768 3.62262ZM7.0715 17.1428C5.53754 17.1411 4.06689 16.531 2.98222 15.4464C1.89755 14.3617 1.28743 12.891 1.28573 11.3571C1.28573 6.75819 5.74318 2.91949 7.0715 1.87484C8.39982 2.91949 12.8573 6.75658 12.8573 11.3571C12.8556 12.891 12.2455 14.3617 11.1608 15.4464C10.0761 16.531 8.60546 17.1411 7.0715 17.1428ZM11.5627 12.1076C11.396 13.0387 10.948 13.8964 10.2791 14.5652C9.61017 15.234 8.75239 15.6818 7.82124 15.8483C7.78589 15.8539 7.75016 15.8569 7.71436 15.8571C7.55311 15.8571 7.39776 15.7964 7.27912 15.6872C7.16048 15.578 7.08722 15.4282 7.07387 15.2675C7.06052 15.1068 7.10806 14.9469 7.20705 14.8196C7.30604 14.6923 7.44925 14.6069 7.60829 14.5802C8.93982 14.356 10.0697 13.2262 10.2955 11.8923C10.324 11.7241 10.4182 11.5742 10.5573 11.4755C10.6964 11.3768 10.869 11.3374 11.0372 11.3659C11.2053 11.3945 11.3552 11.4887 11.4539 11.6278C11.5527 11.7669 11.5921 11.9395 11.5635 12.1076H11.5627Z" fill="#DFDFDF"/>
</svg>
