<svg width="23" height="16" viewBox="0 0 23 16" fill="none" xmlns="http://www.w3.org/2000/svg">
<path d="M18.9078 4.17298C17.8893 3.15219 16.6788 2.34312 15.3462 1.79241C14.0135 1.24171 12.585 0.960271 11.143 0.964322H11.1037C5.06059 0.984947 0.143005 5.97324 0.143005 12.0753V14.3214C0.143005 14.7382 0.308566 15.1379 0.603265 15.4326C0.897965 15.7273 1.29766 15.8929 1.71443 15.8929H20.5715C20.9883 15.8929 21.388 15.7273 21.6827 15.4326C21.9774 15.1379 22.143 14.7382 22.143 14.3214V11.9643C22.147 10.516 21.8631 9.08138 21.3077 7.74381C20.7523 6.40624 19.9365 5.19244 18.9078 4.17298ZM20.5715 14.3214H10.3288L15.707 6.92592C15.8297 6.75739 15.8804 6.54702 15.848 6.3411C15.8156 6.13518 15.7027 5.95057 15.5341 5.82788C15.3656 5.7052 15.1552 5.65449 14.9493 5.6869C14.7434 5.71932 14.5588 5.83221 14.4361 6.00074L8.38513 14.3214H1.71443V12.0753C1.71443 11.7728 1.72916 11.4742 1.75666 11.1786H4.07157C4.27995 11.1786 4.4798 11.0958 4.62715 10.9485C4.7745 10.8011 4.85728 10.6013 4.85728 10.3929C4.85728 10.1845 4.7745 9.98464 4.62715 9.83729C4.4798 9.68994 4.27995 9.60716 4.07157 9.60716H2.03559C3.04916 5.79056 6.35701 2.90503 10.3573 2.56914V4.89289C10.3573 5.10127 10.4401 5.30112 10.5874 5.44847C10.7348 5.59582 10.9346 5.6786 11.143 5.6786C11.3514 5.6786 11.5512 5.59582 11.6986 5.44847C11.8459 5.30112 11.9287 5.10127 11.9287 4.89289V2.56816C13.8779 2.7322 15.7281 3.49756 17.2235 4.75849C18.719 6.01942 19.7859 7.71368 20.2769 9.60716H18.2144C18.006 9.60716 17.8062 9.68994 17.6588 9.83729C17.5115 9.98464 17.4287 10.1845 17.4287 10.3929C17.4287 10.6013 17.5115 10.8011 17.6588 10.9485C17.8062 11.0958 18.006 11.1786 18.2144 11.1786H20.5391C20.5598 11.4389 20.5715 11.7001 20.5715 11.9643V14.3214Z" fill="#DFDFDF"/>
</svg>
