<svg width="21" height="14" viewBox="0 0 21 14" fill="none" xmlns="http://www.w3.org/2000/svg">
<path d="M0.388402 3.34007C0.310626 3.27968 0.248909 3.20789 0.206797 3.12883C0.164684 3.04977 0.143005 2.965 0.143005 2.87939C0.143005 2.79377 0.164684 2.709 0.206797 2.62994C0.248909 2.55088 0.310626 2.4791 0.388402 2.4187C0.468592 2.35776 2.34318 0.928574 5.9778 0.928574C7.89612 0.928574 9.33539 1.67689 10.6059 2.33745C11.7828 2.95007 12.895 3.52857 14.3093 3.52857C15.4512 3.54187 16.582 3.35209 17.6159 2.97364C18.0168 2.82932 18.3895 2.64138 18.7229 2.41545C18.8006 2.35532 18.8927 2.30772 18.9939 2.27537C19.0952 2.24301 19.2036 2.22653 19.3131 2.22687C19.4225 2.22721 19.5308 2.24436 19.6317 2.27735C19.7326 2.31033 19.8242 2.3585 19.9013 2.4191C19.9784 2.47971 20.0394 2.55156 20.0808 2.63056C20.1223 2.70956 20.1434 2.79416 20.143 2.87953C20.1426 2.9649 20.1206 3.04937 20.0783 3.12811C20.036 3.20685 19.9743 3.27832 19.8966 3.33845C19.8185 3.39939 17.9439 4.82857 14.3093 4.82857C12.391 4.82857 10.9517 4.08026 9.68115 3.4197C8.50432 2.80707 7.39207 2.22857 5.9778 2.22857C4.8359 2.21528 3.70511 2.40505 2.67123 2.78351C2.27026 2.92783 1.89754 3.11576 1.56418 3.3417C1.40776 3.46279 1.19622 3.53061 0.975863 3.53031C0.755502 3.53 0.54427 3.4616 0.388402 3.34007ZM18.7229 6.96545C18.3895 7.19138 18.0168 7.37932 17.6159 7.52364C16.582 7.90209 15.4512 8.09187 14.3093 8.07857C12.895 8.07857 11.7828 7.50007 10.6059 6.88745C9.33539 6.22689 7.89612 5.47857 5.9778 5.47857C2.34318 5.47857 0.468592 6.90776 0.390484 6.9687C0.233599 7.09013 0.144968 7.2552 0.144089 7.42761C0.14321 7.60002 0.230156 7.76564 0.385798 7.88804C0.54144 8.01044 0.75303 8.07959 0.97402 8.08027C1.19501 8.08096 1.4073 8.01313 1.56418 7.8917C1.89754 7.66576 2.27026 7.47783 2.67123 7.33351C3.70511 6.95505 4.8359 6.76528 5.9778 6.77857C7.39207 6.77857 8.50432 7.35707 9.68115 7.9697C10.9517 8.63026 12.3889 9.37857 14.3093 9.37857C17.9439 9.37857 19.8185 7.94939 19.8966 7.88845C19.9743 7.82832 20.036 7.75685 20.0783 7.67811C20.1206 7.59937 20.1426 7.5149 20.143 7.42953C20.1434 7.34417 20.1223 7.25956 20.0808 7.18056C20.0394 7.10156 19.9784 7.02971 19.9013 6.9691C19.8242 6.9085 19.7326 6.86033 19.6317 6.82735C19.5308 6.79436 19.4225 6.77721 19.3131 6.77687C19.2036 6.77653 19.0952 6.79301 18.9939 6.82537C18.8927 6.85772 18.8006 6.90532 18.7229 6.96545ZM18.7229 11.5154C18.3895 11.7414 18.0168 11.9293 17.6159 12.0736C16.582 12.4521 15.4512 12.6419 14.3093 12.6286C12.895 12.6286 11.7828 12.0501 10.6059 11.4374C9.33539 10.7769 7.89612 10.0286 5.9778 10.0286C2.34318 10.0286 0.468592 11.4578 0.390484 11.5187C0.233599 11.6401 0.144968 11.8052 0.144089 11.9776C0.14321 12.15 0.230156 12.3156 0.385798 12.438C0.54144 12.5604 0.75303 12.6296 0.97402 12.6303C1.19501 12.631 1.4073 12.5631 1.56418 12.4417C1.89754 12.2158 2.27026 12.0278 2.67123 11.8835C3.70511 11.5051 4.8359 11.3153 5.9778 11.3286C7.39207 11.3286 8.50432 11.9071 9.68115 12.5197C10.9517 13.1803 12.3889 13.9286 14.3093 13.9286C17.9439 13.9286 19.8185 12.4994 19.8966 12.4384C20.0535 12.317 20.1421 12.1519 20.143 11.9795C20.1439 11.8071 20.0569 11.6415 19.9013 11.5191C19.7456 11.3967 19.5341 11.3276 19.3131 11.3269C19.0921 11.3262 18.8798 11.394 18.7229 11.5154Z" fill="#DFDFDF"/>
</svg>
