<svg width="24" height="19" viewBox="0 0 24 19" fill="none" xmlns="http://www.w3.org/2000/svg">
<path d="M18 15.4286C18 16.3379 17.6388 17.21 16.9958 17.8529C16.3528 18.4959 15.4807 18.8571 14.5714 18.8571C13.1036 18.8571 11.6839 17.9004 11.1964 16.5836C11.1222 16.3716 11.1342 16.1389 11.2298 15.9357C11.3254 15.7324 11.497 15.5748 11.7076 15.4968C11.9182 15.4187 12.151 15.4264 12.356 15.5183C12.5609 15.6101 12.7217 15.7787 12.8036 15.9879C13.0436 16.6361 13.8214 17.1429 14.5714 17.1429C15.0261 17.1429 15.4621 16.9622 15.7836 16.6408C16.1051 16.3193 16.2857 15.8832 16.2857 15.4286C16.2857 14.9739 16.1051 14.5379 15.7836 14.2164C15.4621 13.8949 15.0261 13.7143 14.5714 13.7143H2.57143C2.3441 13.7143 2.12608 13.624 1.96534 13.4632C1.80459 13.3025 1.71429 13.0845 1.71429 12.8571C1.71429 12.6298 1.80459 12.4118 1.96534 12.2511C2.12608 12.0903 2.3441 12 2.57143 12H14.5714C15.4807 12 16.3528 12.3612 16.9958 13.0042C17.6388 13.6472 18 14.5193 18 15.4286ZM11.1429 6.85714C12.0522 6.85714 12.9242 6.49592 13.5672 5.85294C14.2102 5.20996 14.5714 4.33789 14.5714 3.42857C14.5714 2.51926 14.2102 1.64719 13.5672 1.00421C12.9242 0.361223 12.0522 0 11.1429 0C9.675 0 8.25536 0.956786 7.76786 2.27357C7.69368 2.48557 7.70567 2.71821 7.80126 2.92146C7.89685 3.1247 8.0684 3.28231 8.27899 3.36037C8.48959 3.43843 8.72242 3.43071 8.92739 3.33888C9.13235 3.24704 9.29308 3.07842 9.375 2.86929C9.615 2.22107 10.3929 1.71429 11.1429 1.71429C11.5975 1.71429 12.0335 1.8949 12.355 2.21639C12.6765 2.53788 12.8571 2.97391 12.8571 3.42857C12.8571 3.88323 12.6765 4.31926 12.355 4.64075C12.0335 4.96225 11.5975 5.14286 11.1429 5.14286H0.857143C0.629814 5.14286 0.411797 5.23316 0.251051 5.39391C0.0903058 5.55465 0 5.77267 0 6C0 6.22733 0.0903058 6.44535 0.251051 6.60609C0.411797 6.76684 0.629814 6.85714 0.857143 6.85714H11.1429ZM20.5714 3.42857C19.1036 3.42857 17.6839 4.38536 17.1964 5.70214C17.1222 5.91414 17.1342 6.14679 17.2298 6.35003C17.3254 6.55327 17.497 6.71088 17.7076 6.78894C17.9182 6.867 18.151 6.85929 18.356 6.76745C18.5609 6.67561 18.7217 6.50699 18.8036 6.29786C19.0436 5.64964 19.8214 5.14286 20.5714 5.14286C21.0261 5.14286 21.4621 5.32347 21.7836 5.64496C22.1051 5.96645 22.2857 6.40249 22.2857 6.85714C22.2857 7.3118 22.1051 7.74783 21.7836 8.06933C21.4621 8.39082 21.0261 8.57143 20.5714 8.57143H1.71429C1.48696 8.57143 1.26894 8.66173 1.10819 8.82248C0.947449 8.98323 0.857143 9.20124 0.857143 9.42857C0.857143 9.6559 0.947449 9.87392 1.10819 10.0347C1.26894 10.1954 1.48696 10.2857 1.71429 10.2857H20.5714C21.4807 10.2857 22.3528 9.92449 22.9958 9.28151C23.6388 8.63853 24 7.76646 24 6.85714C24 5.94783 23.6388 5.07576 22.9958 4.43278C22.3528 3.78979 21.4807 3.42857 20.5714 3.42857Z" fill="#DFDFDF"/>
</svg>
